<svg xmlns="http://www.w3.org/2000/svg" width="126" height="20" viewBox="0 0 126 20"><defs><style>.a{fill:#fff;}.b{fill:#00ffa5;}</style></defs><path class="a" d="M-42.674-3.945c0-4.81-7.808-3.684-7.808-6.181,0-.9.7-1.33,1.62-1.31a1.656,1.656,0,0,1,1.823,1.494h4.163c-.158-2.743-2.475-4.3-5.918-4.3-3.308,0-5.761,1.515-5.761,4.237C-54.6-4.907-46.7-6.339-46.7-3.679c0,.839-.72,1.351-1.845,1.351A1.754,1.754,0,0,1-50.5-3.965h-4.1c.113,2.906,2.768,4.442,6.166,4.442C-44.744.476-42.674-1.529-42.674-3.945Zm.72.307c0,2.968,1.823,3.971,4.433,3.971h1.958V-2.635h-1.373c-.855,0-1.17-.287-1.17-.962V-8.182h2.52v-2.906h-2.52v-2.784h-3.848v2.784h-1.53v2.906h1.53ZM-36.44-5.4C-36.44-1.8-33.987.5-30.927.5a4.58,4.58,0,0,0,3.893-1.781V.333h3.848V-11.088h-3.848v1.617a4.5,4.5,0,0,0-3.87-1.781C-33.987-11.252-36.44-9-36.44-5.4Zm9.406.02a2.661,2.661,0,0,1-2.745,2.825A2.69,2.69,0,0,1-32.525-5.4a2.656,2.656,0,0,1,2.745-2.8A2.661,2.661,0,0,1-27.034-5.377Zm5,1.74c0,2.968,1.823,3.971,4.433,3.971h1.958V-2.635H-17.02c-.855,0-1.17-.287-1.17-.962V-8.182h2.52v-2.906h-2.52v-2.784h-3.848v2.784h-1.53v2.906h1.53Zm18.677-7.45H-7.209v6.2A2.223,2.223,0,0,1-9.64-2.471a2.227,2.227,0,0,1-2.408-2.415v-6.2h-3.825v6.673A4.539,4.539,0,0,0-11.012.456a4.742,4.742,0,0,0,3.8-1.678V.333h3.848ZM7.35-2.983C7.282-7.24.487-5.951.487-7.772c0-.553.5-.88,1.4-.88,1.08,0,1.733.512,1.845,1.289H7.282c-.248-2.251-2.048-3.889-5.288-3.889-3.285,0-5.108,1.6-5.108,3.541,0,4.2,6.841,2.865,6.841,4.708,0,.512-.518.921-1.508.921-1.058,0-1.845-.532-1.935-1.33h-3.8C-3.339-1.2-1.089.5,2.264.5,5.415.5,7.35-1,7.35-2.983Z" transform="translate(54.6 14.24)"/><path class="b" d="M6.469-4.828c0-2,1.063-2.583,2.9-2.583h1.063v-3.771A4.8,4.8,0,0,0,6.469-9.119v-1.938H2.6V.568H6.469Zm9.118-3.542a2.119,2.119,0,0,1,2.376,2H13.121A2.337,2.337,0,0,1,15.587-8.369Zm6.041,5.083H17.51A2.076,2.076,0,0,1,15.5-2.161,2.259,2.259,0,0,1,13.1-4.39h8.756a8.3,8.3,0,0,0,.068-1.042c0-3.542-2.6-5.792-6.289-5.792-3.756,0-6.38,2.292-6.38,5.979S11.922.735,15.632.735C18.777.735,21.017-1.015,21.627-3.286Zm3.937-6.125v-1.646H21.7V6.11h3.869V-1.057A4.667,4.667,0,0,0,29.455.735c3.1,0,5.566-2.333,5.566-6s-2.466-5.958-5.566-5.958A4.569,4.569,0,0,0,25.564-9.411Zm5.52,4.146a2.727,2.727,0,0,1-2.783,2.9,2.7,2.7,0,0,1-2.76-2.875A2.7,2.7,0,0,1,28.3-8.119,2.692,2.692,0,0,1,31.084-5.265Zm16.063.021c0-3.688-2.851-5.979-6.561-5.979-3.688,0-6.561,2.292-6.561,5.979S36.831.735,40.541.735,47.147-1.557,47.147-5.244Zm-9.185,0a2.579,2.579,0,0,1,2.624-2.9,2.6,2.6,0,0,1,2.624,2.9,2.633,2.633,0,0,1-2.67,2.9C39.138-2.349,37.962-3.286,37.962-5.244Zm12.85.417c0-2,1.063-2.583,2.9-2.583h1.063v-3.771a4.8,4.8,0,0,0-3.959,2.062v-1.938H46.944V.568h3.869Zm4.163,1.354c0,3.021,1.833,4.042,4.457,4.042H61.4V-2.453h-1.38c-.86,0-1.176-.292-1.176-.979V-8.1h2.534v-2.958H58.844V-13.89H54.975v2.833H53.437V-8.1h1.538Z" transform="translate(64.599 13.89)"/></svg>